# xmcd CD database file
#
# Track frame offsets:
#	150
#	10977
#	27442
#	42856
#	54234
#	70130
#	88380
#	102158
#	123185
#	137413
#
# Disc length: 1947 seconds
#
# Revision: 0
# Processed by: cddbd v1.5.2PL0 Copyright (c) Steve Scherf et al.
# Submitted via: CDex 1.51
#
DISCID=7d07990a
DTITLE=Jairo Silva and Elvio Carllosso - O tempo... e a vida
DYEAR=2006
DGENRE=Country
TTITLE0=Prece do Gaúcho
TTITLE1=O tempo e a vida
TTITLE2=Que linda é a minha terra
TTITLE3=Fandango do Malaquias
TTITLE4=A gaita do Falecido
TTITLE5=Saudades da minha terra
TTITLE6=Pago Santo
TTITLE7=Carancho
TTITLE8=Pantaneira
TTITLE9=Oração de São Francisco
EXTD=YEAR: 2006
EXTT0=
EXTT1=
EXTT2=
EXTT3=
EXTT4=
EXTT5=
EXTT6=
EXTT7=
EXTT8=
EXTT9=
PLAYORDER=
